<svg width="24" height="24" viewBox="0 0 24 24" fill="none" xmlns="http://www.w3.org/2000/svg">
<g clip-path="url(#clip0)">
<path d="M4.69606 1.56543H3.13086V3.13063H4.69606V1.56543Z" fill="#8984B1"/>
<path d="M16.1736 1.56543H14.6084V3.13063H16.1736V1.56543Z" fill="#8984B1"/>
<path d="M22.4352 10.9562V9.39097H20.87V7.82577H19.3048V4.69531H17.7396V6.26052H9.39172V7.82572H7.82652V9.39092H6.26131V10.9561H4.69611V13.0431H3.13086V14.6083H4.69606V17.7388H6.26127V19.304H7.82642V20.8692H10.9569V22.4344H9.39172V23.9997H16.1743V22.4345H19.3048V20.8693H20.87V19.3041H22.4352V17.7388H24.0004V10.9562H22.4352ZM16.1743 16.1735H9.39172V14.6083H16.1743V16.1735H16.1743ZM19.3048 13.0431H9.39172V11.4779H19.3048V13.0431Z" fill="#8984B1"/>
<path d="M14.6083 0H4.69531V1.5652H14.6083V0Z" fill="#8984B1"/>
<path d="M3.13063 3.13086H1.56543V4.69606H3.13063V3.13086Z" fill="#8984B1"/>
<path d="M17.739 3.13086H16.1738V4.69606H17.739V3.13086Z" fill="#8984B1"/>
<path d="M1.5652 4.69531H0V11.4779H1.5652V4.69531Z" fill="#8984B1"/>
<path d="M3.13063 11.4775H1.56543V13.0427H3.13063V11.4775Z" fill="#8984B1"/>
</g>
<defs>
<clipPath id="clip0">
<rect width="24" height="24" fill="white"/>
</clipPath>
</defs>
</svg>
