<svg xmlns="http://www.w3.org/2000/svg" width="20" height="21" fill="none" viewBox="0 0 20 21">
    <g fill="#2F3045" filter="url(#a)">
        <path d="M16.087 3.913h-3.043v1.304h3.043V3.913zM16.087 8.26h-3.043v1.305h3.043V8.26zM17.39 5.218h-1.303V8.26h1.304V5.218zM13.043 5.218H11.74V8.26h1.304V5.218zM8.695 0H6.087v1.304h2.608V0zM8.695 3.913H6.087v1.304h2.608V3.913z"/>
        <path d="M10 1.305H8.694v2.608H10V1.305zM6.086 1.305H4.782v2.608h1.304V1.305zM3.913 10.869H0v9.13h3.913v-9.13zM15.217 12.173v1.304h-1.739v1.305H8.261v-1.305h5.217V10.87h-8.26v7.826h1.304v1.304h6.956v-1.304h2.609V17.39h1.304v-1.304h1.305v-1.304H20v-2.609h-4.783z"/>
    </g>
    <defs>
        <filter id="a" width="20" height="20.999" x="0" y="0" color-interpolation-filters="sRGB" filterUnits="userSpaceOnUse">
            <feFlood flood-opacity="0" result="BackgroundImageFix"/>
            <feColorMatrix in="SourceAlpha" values="0 0 0 0 0 0 0 0 0 0 0 0 0 0 0 0 0 0 127 0"/>
            <feOffset dy="1"/>
            <feColorMatrix values="0 0 0 0 0 0 0 0 0 0 0 0 0 0 0 0 0 0 0.25 0"/>
            <feBlend in2="BackgroundImageFix" result="effect1_dropShadow"/>
            <feBlend in="SourceGraphic" in2="effect1_dropShadow" result="shape"/>
        </filter>
    </defs>
</svg>
