<svg xmlns="http://www.w3.org/2000/svg" width="13" height="15" fill="none" viewBox="0 0 13 15">
    <path fill="#03E1E4" fill-rule="evenodd" d="M0 0h13v1.406h-2.167v3.75H9.75v.938H8.667v.937H7.583v.938h1.084v.937H9.75v.938h1.083v3.75H13V15H0v-1.406h2.167v-3.75H3.25v-.938h1.083V7.97h1.084V7.03H4.333v-.937H3.25v-.938H2.167v-3.75H0V0zm9.75 11.719h-6.5v-.938h1.083v-.937h1.084v-.938h.541v-.469h1.084v.47h.541v.937h1.084v.937H9.75v.938zm-5.417-7.5h4.334V3.28H9.75v-.937h-6.5v.937h1.083v.938z" clip-rule="evenodd"/>
</svg>
